<?xml version="1.0" encoding="UTF-8" standalone="no"?>
<!DOCTYPE svg PUBLIC "-//W3C//DTD SVG 1.1//EN"
 "http://www.w3.org/Graphics/SVG/1.1/DTD/svg11.dtd">
<!-- Generated by graphviz version 2.39.20160612.1140 (20090106.0545)
 -->
<!-- Title: buttoncounter Pages: 1 -->
<svg width="650pt" height="355pt"
 viewBox="0.00 0.00 649.56 355.00" xmlns="http://www.w3.org/2000/svg" xmlns:xlink="http://www.w3.org/1999/xlink">
<g id="graph0" class="graph" transform="scale(1 1) rotate(0) translate(4 351)">
<title>buttoncounter</title>
<polygon fill="white" stroke="transparent" points="-4,4 -4,-351 645.56,-351 645.56,4 -4,4"/>
<text text-anchor="middle" x="320.78" y="-7.8" font-family="Times New Roman,serif" font-size="14.00">buttoncounter</text>
<!-- n6 -->
<g id="node1" class="node">
<title>n6</title>
<polygon fill="none" stroke="black" points="58.99,-301 4.53,-283 58.99,-265 113.46,-283 58.99,-301"/>
<text text-anchor="middle" x="58.99" y="-279.3" font-family="Times New Roman,serif" font-size="14.00">counter</text>
</g>
<!-- c13 -->
<g id="node6" class="node">
<title>c13</title>
<polygon fill="none" stroke="black" points="183.73,-214 183.73,-260 272.73,-260 272.73,-214 183.73,-214"/>
<text text-anchor="middle" x="196.73" y="-244.8" font-family="Times New Roman,serif" font-size="14.00">A</text>
<polyline fill="none" stroke="black" points="183.73,-237 209.73,-237 "/>
<text text-anchor="middle" x="196.73" y="-221.8" font-family="Times New Roman,serif" font-size="14.00">B</text>
<polyline fill="none" stroke="black" points="209.73,-214 209.73,-260 "/>
<text text-anchor="middle" x="228.23" y="-240.8" font-family="Times New Roman,serif" font-size="14.00">$4</text>
<text text-anchor="middle" x="228.23" y="-225.8" font-family="Times New Roman,serif" font-size="14.00">$eq</text>
<polyline fill="none" stroke="black" points="246.73,-214 246.73,-260 "/>
<text text-anchor="middle" x="259.73" y="-233.3" font-family="Times New Roman,serif" font-size="14.00">Y</text>
</g>
<!-- n6&#45;&gt;c13 -->
<g id="edge5" class="edge">
<title>n6:e&#45;&gt;c13:w</title>
<path fill="none" stroke="#666666" stroke-width="3" d="M113.23,-283C123.36,-283 122.42,-274.01 131.23,-269 149.08,-258.84 155.78,-251.59 172.06,-249.57"/>
<polygon fill="#666666" stroke="#666666" stroke-width="3" points="172.44,-253.05 182.23,-249 172.05,-246.06 172.44,-253.05"/>
<text text-anchor="middle" x="146.73" y="-272.8" font-family="Times New Roman,serif" font-size="14.00" fill="#666666">&lt;15&gt;</text>
</g>
<!-- c14 -->
<g id="node8" class="node">
<title>c14</title>
<polygon fill="none" stroke="black" points="180.23,-149 180.23,-195 276.23,-195 276.23,-149 180.23,-149"/>
<text text-anchor="middle" x="193.23" y="-179.8" font-family="Times New Roman,serif" font-size="14.00">A</text>
<polyline fill="none" stroke="black" points="180.23,-172 206.23,-172 "/>
<text text-anchor="middle" x="193.23" y="-156.8" font-family="Times New Roman,serif" font-size="14.00">B</text>
<polyline fill="none" stroke="black" points="206.23,-149 206.23,-195 "/>
<text text-anchor="middle" x="228.23" y="-175.8" font-family="Times New Roman,serif" font-size="14.00">$3</text>
<text text-anchor="middle" x="228.23" y="-160.8" font-family="Times New Roman,serif" font-size="14.00">$add</text>
<polyline fill="none" stroke="black" points="250.23,-149 250.23,-195 "/>
<text text-anchor="middle" x="263.23" y="-168.3" font-family="Times New Roman,serif" font-size="14.00">Y</text>
</g>
<!-- n6&#45;&gt;c14 -->
<g id="edge6" class="edge">
<title>n6:e&#45;&gt;c14:w</title>
<path fill="none" stroke="#666666" stroke-width="3" d="M113.23,-283C137.26,-283 117.15,-251.48 131.23,-232 141.43,-217.88 150,-220.41 162.23,-208 168.22,-201.91 168.45,-193.78 171.34,-188.71"/>
<polygon fill="#666666" stroke="#666666" stroke-width="3" points="173.03,-191.78 180.23,-184 169.75,-185.6 173.03,-191.78"/>
<text text-anchor="middle" x="146.73" y="-235.8" font-family="Times New Roman,serif" font-size="14.00" fill="#666666">&lt;15&gt;</text>
</g>
<!-- p3 -->
<g id="node11" class="node">
<title>p3</title>
<path fill="none" stroke="black" d="M485.23,-224C485.23,-224 355.23,-224 355.23,-224 349.23,-224 343.23,-218 343.23,-212 343.23,-212 343.23,-198 343.23,-198 343.23,-192 349.23,-186 355.23,-186 355.23,-186 485.23,-186 485.23,-186 491.23,-186 497.23,-192 497.23,-198 497.23,-198 497.23,-212 497.23,-212 497.23,-218 491.23,-224 485.23,-224"/>
<text text-anchor="middle" x="420.23" y="-208.8" font-family="Times New Roman,serif" font-size="14.00">PROC $1</text>
<text text-anchor="middle" x="420.23" y="-193.8" font-family="Times New Roman,serif" font-size="14.00">buttoncounter.v:7.5&#45;39.5</text>
</g>
<!-- n6&#45;&gt;p3 -->
<g id="edge7" class="edge">
<title>n6:e&#45;&gt;p3:w</title>
<path fill="none" stroke="#666666" stroke-width="3" d="M113.23,-283C121.24,-283 123.22,-283.78 131.23,-284 145,-284.38 148.47,-284.84 162.23,-284 213.18,-280.88 228.78,-288.84 276.23,-270 301.34,-260.03 306.88,-253.84 325.23,-234 332.15,-226.52 331.04,-216 334.18,-209.9"/>
<polygon fill="#666666" stroke="#666666" stroke-width="3" points="336.1,-212.84 343.23,-205 332.77,-206.69 336.1,-212.84"/>
<text text-anchor="middle" x="228.23" y="-286.8" font-family="Times New Roman,serif" font-size="14.00" fill="#666666">&lt;15&gt;</text>
</g>
<!-- n7 -->
<g id="node2" class="node">
<title>n7</title>
<polygon fill="none" stroke="black" points="635.91,-197.54 635.91,-212.46 612.9,-223 580.35,-223 557.33,-212.46 557.33,-197.54 580.35,-187 612.9,-187 635.91,-197.54"/>
<text text-anchor="middle" x="596.62" y="-201.3" font-family="Times New Roman,serif" font-size="14.00">display</text>
</g>
<!-- n7&#45;&gt;p3 -->
<g id="edge9" class="edge">
<title>n7:e&#45;&gt;p3:w</title>
<path fill="none" stroke="#7570b3" stroke-width="3" d="M636.62,-205C644.63,-205 641.42,-217.47 635.62,-223 591.09,-265.43 558.74,-223.78 497.23,-224 428.78,-224.25 392.88,-271.11 343.23,-224 340.54,-221.45 338.4,-217.5 337.54,-213.85"/>
<polygon fill="#7570b3" stroke="#7570b3" stroke-width="3" points="340.64,-215.48 342.23,-205 334.45,-212.2 340.64,-215.48"/>
<text text-anchor="middle" x="527.23" y="-232.8" font-family="Times New Roman,serif" font-size="14.00" fill="#7570b3">&lt;7&gt;</text>
</g>
<!-- n8 -->
<g id="node3" class="node">
<title>n8</title>
<polygon fill="none" stroke="black" points="255.23,-33.54 255.23,-48.46 239.41,-59 217.04,-59 201.23,-48.46 201.23,-33.54 217.04,-23 239.41,-23 255.23,-33.54"/>
<text text-anchor="middle" x="228.23" y="-37.3" font-family="Times New Roman,serif" font-size="14.00">clk</text>
</g>
<!-- n8&#45;&gt;p3 -->
<g id="edge10" class="edge">
<title>n8:e&#45;&gt;p3:w</title>
<path fill="none" stroke="#1b9e77" d="M256.23,-41C297.45,-41 305.22,-66.95 325.23,-103 334.61,-119.9 324.69,-180.36 334.91,-199.29"/>
<polygon fill="#1b9e77" stroke="#1b9e77" points="333,-202.22 343.23,-205 336.96,-196.45 333,-202.22"/>
</g>
<!-- n9 -->
<g id="node4" class="node">
<title>n9</title>
<polygon fill="none" stroke="black" points="96.07,-97.54 96.07,-112.46 74.35,-123 43.64,-123 21.92,-112.46 21.92,-97.54 43.64,-87 74.35,-87 96.07,-97.54"/>
<text text-anchor="middle" x="58.99" y="-101.3" font-family="Times New Roman,serif" font-size="14.00">button</text>
</g>
<!-- c15 -->
<g id="node10" class="node">
<title>c15</title>
<polygon fill="none" stroke="black" points="183.73,-78 183.73,-124 272.73,-124 272.73,-78 183.73,-78"/>
<text text-anchor="middle" x="196.73" y="-108.8" font-family="Times New Roman,serif" font-size="14.00">A</text>
<polyline fill="none" stroke="black" points="183.73,-101 209.73,-101 "/>
<text text-anchor="middle" x="196.73" y="-85.8" font-family="Times New Roman,serif" font-size="14.00">B</text>
<polyline fill="none" stroke="black" points="209.73,-78 209.73,-124 "/>
<text text-anchor="middle" x="228.23" y="-104.8" font-family="Times New Roman,serif" font-size="14.00">$2</text>
<text text-anchor="middle" x="228.23" y="-89.8" font-family="Times New Roman,serif" font-size="14.00">$eq</text>
<polyline fill="none" stroke="black" points="246.73,-78 246.73,-124 "/>
<text text-anchor="middle" x="259.73" y="-97.3" font-family="Times New Roman,serif" font-size="14.00">Y</text>
</g>
<!-- n9&#45;&gt;c15 -->
<g id="edge11" class="edge">
<title>n9:e&#45;&gt;c15:w</title>
<path fill="none" stroke="#666666" d="M96.99,-105C131.33,-105 142.12,-111.51 171.85,-112.79"/>
<polygon fill="#666666" stroke="#666666" points="172.16,-116.29 182.23,-113 172.3,-109.29 172.16,-116.29"/>
</g>
<!-- v0 -->
<g id="node5" class="node">
<title>v0</title>
<ellipse fill="none" stroke="black" cx="58.99" cy="-213" rx="27" ry="18"/>
<text text-anchor="middle" x="58.99" y="-209.3" font-family="Times New Roman,serif" font-size="14.00">15</text>
</g>
<!-- v0&#45;&gt;c13 -->
<g id="edge12" class="edge">
<title>v0:e&#45;&gt;c13:w</title>
<path fill="none" stroke="#d95f02" stroke-width="3" d="M86.99,-213C108.57,-213 110.14,-197.55 131.23,-193 144.69,-190.1 150.17,-186.32 162.23,-193 172.54,-198.72 169.95,-212.21 173.33,-219.73"/>
<polygon fill="#d95f02" stroke="#d95f02" stroke-width="3" points="171.84,-222.91 182.23,-225 175.41,-216.89 171.84,-222.91"/>
<text text-anchor="middle" x="146.73" y="-196.8" font-family="Times New Roman,serif" font-size="14.00" fill="#d95f02">&lt;32&gt;</text>
</g>
<!-- c13&#45;&gt;p3 -->
<g id="edge1" class="edge">
<title>c13:e&#45;&gt;p3:w</title>
<path fill="none" stroke="#666666" d="M274.23,-237C304.33,-237 308.73,-211.62 333.21,-206.06"/>
<polygon fill="#666666" stroke="#666666" points="333.65,-209.54 343.23,-205 332.91,-202.58 333.65,-209.54"/>
</g>
<!-- v1 -->
<g id="node7" class="node">
<title>v1</title>
<ellipse fill="none" stroke="black" cx="58.99" cy="-159" rx="27" ry="18"/>
<text text-anchor="middle" x="58.99" y="-155.3" font-family="Times New Roman,serif" font-size="14.00">1&#39;1</text>
</g>
<!-- v1&#45;&gt;c14 -->
<g id="edge13" class="edge">
<title>v1:e&#45;&gt;c14:w</title>
<path fill="none" stroke="#e6ab02" d="M86.99,-159C124.87,-159 136.78,-159.84 170.19,-159.98"/>
<polygon fill="#e6ab02" stroke="#e6ab02" points="170.22,-163.48 180.23,-160 170.23,-156.48 170.22,-163.48"/>
</g>
<!-- c14&#45;&gt;p3 -->
<g id="edge2" class="edge">
<title>c14:e&#45;&gt;p3:w</title>
<path fill="none" stroke="#e7298a" stroke-width="3" d="M276.23,-172C299.28,-172 305.34,-177.34 325.23,-189 330.27,-191.96 331.98,-196.47 334.25,-199.95"/>
<polygon fill="#e7298a" stroke="#e7298a" stroke-width="3" points="332.79,-203.14 343.23,-205 336.23,-197.04 332.79,-203.14"/>
<text text-anchor="middle" x="309.73" y="-192.8" font-family="Times New Roman,serif" font-size="14.00" fill="#e7298a">&lt;15&gt;</text>
</g>
<!-- v2 -->
<g id="node9" class="node">
<title>v2</title>
<ellipse fill="none" stroke="black" cx="58.99" cy="-51" rx="27" ry="18"/>
<text text-anchor="middle" x="58.99" y="-47.3" font-family="Times New Roman,serif" font-size="14.00">1</text>
</g>
<!-- v2&#45;&gt;c15 -->
<g id="edge14" class="edge">
<title>v2:e&#45;&gt;c15:w</title>
<path fill="none" stroke="#1b9e77" stroke-width="3" d="M86.99,-51C128.83,-51 135.71,-83.02 171.8,-88.27"/>
<polygon fill="#1b9e77" stroke="#1b9e77" stroke-width="3" points="172.01,-91.8 182.23,-89 172.49,-84.81 172.01,-91.8"/>
<text text-anchor="middle" x="146.73" y="-89.8" font-family="Times New Roman,serif" font-size="14.00" fill="#1b9e77">&lt;32&gt;</text>
</g>
<!-- c15&#45;&gt;p3 -->
<g id="edge3" class="edge">
<title>c15:e&#45;&gt;p3:w</title>
<path fill="none" stroke="#e6ab02" d="M274.23,-101C312.36,-101 305.11,-137.6 325.23,-170 331.86,-180.68 329.22,-194.09 333.7,-200.79"/>
<polygon fill="#e6ab02" stroke="#e6ab02" points="332.66,-204.15 343.23,-205 335.5,-197.75 332.66,-204.15"/>
</g>
<!-- p3&#45;&gt;n6 -->
<g id="edge4" class="edge">
<title>p3:e&#45;&gt;n6:w</title>
<path fill="none" stroke="#666666" stroke-width="3" d="M498.23,-205C506.68,-205 501.83,-216.9 497.23,-224 450.51,-296.05 407.57,-287.67 325.23,-312 304.23,-318.2 298.09,-315.89 276.23,-317 155.62,-323.14 88.85,-387.89 4.99,-301 2.82,-298.75 0.97,-295.51 0,-292.4"/>
<polygon fill="#666666" stroke="#666666" stroke-width="3" points="3.3,-293.57 3.99,-283 -3.14,-290.83 3.3,-293.57"/>
<text text-anchor="middle" x="228.23" y="-335.8" font-family="Times New Roman,serif" font-size="14.00" fill="#666666">&lt;15&gt;</text>
</g>
<!-- p3&#45;&gt;n7 -->
<g id="edge8" class="edge">
<title>p3:e&#45;&gt;n7:w</title>
<path fill="none" stroke="#7570b3" stroke-width="3" d="M497.23,-205C508.54,-205 504.77,-191.33 515.23,-187 525.08,-182.92 529.37,-182.92 539.23,-187 545.27,-189.5 546.56,-195.13 548.76,-199.43"/>
<polygon fill="#7570b3" stroke="#7570b3" stroke-width="3" points="546.95,-202.43 557.23,-205 550.8,-196.58 546.95,-202.43"/>
<text text-anchor="middle" x="527.23" y="-190.8" font-family="Times New Roman,serif" font-size="14.00" fill="#7570b3">&lt;7&gt;</text>
</g>
</g>
</svg>
